<svg height="128" id="Layer_1" viewBox="0 0 128 128" width="128" xmlns="http://www.w3.org/2000/svg"><style>.st0{fill-rule:evenodd;clip-rule:evenodd}</style><path d="M24.027 89.479c-3.992 0-7.577 1.612-10.209 4.234v-.003c-2.625 2.627-4.239 6.207-4.239 10.186 0 3.975 1.614 7.542 4.239 10.164 2.632 2.623 6.217 4.228 10.209 4.228 3.997 0 7.593-1.6 10.221-4.22l.011-.007c2.627-2.622 4.232-6.192 4.241-10.164-.009-3.979-1.614-7.549-4.252-10.182-2.635-2.62-6.224-4.236-10.221-4.236zm-10.209 24.588v-.007h-.003l.003.007zm20.43-20.357v.003h.007l-.007-.003zm52.255-52.198C66.789 21.796 39.619 9.591 9.627 9.579v20.776c48.5.032 87.926 39.519 87.961 88.066h20.833c-.015-30.005-12.209-57.189-31.918-76.909z"/><path d="M9.59 46.588v20.785c13.567.008 26.402 5.337 36.004 14.955 9.602 9.586 14.91 22.438 14.931 36.056h.008v.037H81.4c-.017-19.797-8.065-37.729-21.074-50.749C47.313 54.655 29.388 46.602 9.59 46.588z"/></svg>