<?xml version="1.0" encoding="utf-8"?><!-- Generator: Adobe Illustrator 16.0.0, SVG Export Plug-In . SVG Version: 6.00 Build 0) --><!DOCTYPE svg PUBLIC "-//W3C//DTD SVG 1.1//EN" "http://www.w3.org/Graphics/SVG/1.1/DTD/svg11.dtd"><svg version="1.1" id="Layer_1" xmlns="http://www.w3.org/2000/svg" xmlns:xlink="http://www.w3.org/1999/xlink" x="0px" y="0px" width="46.699px" height="47.375px" viewBox="10.589 10.32 46.699 47.375" enable-background="new 10.589 10.32 46.699 47.375" xml:space="preserve"><path fill="#FFFFFF" d="M34.533,52.561c-9.387,0-20.053-11.307-19.2-20.694c0.853-8.96,12.8-17.28,21.653-16	c7.787,1.066,14.721,10.88,14.293,18.667C50.854,42.746,42.746,52.561,34.533,52.561z"/><path fill="#00AFF0" d="M41.254,57.359c-0.641-0.213-1.601-0.426-2.134-0.64c-0.64-0.319-1.387-0.319-3.733-0.213	c-2.24,0.106-3.414,0-5.013-0.214C21.84,54.8,15.013,48.613,12.56,40.08c-0.427-1.6-0.533-2.453-0.533-6.293	c0-4.161-0.107-4.48-0.64-6.187c-3.093-8.427,3.2-17.28,12.16-17.28c1.813,0,4.053,0.534,5.333,1.173	c0.854,0.427,1.387,0.533,4.693,0.533c2.987,0,4.16,0.107,5.653,0.534c6.721,1.707,12.16,6.08,15.04,12.16	c1.813,3.733,2.454,7.574,2.026,11.946c-0.213,2.348-0.213,2.561,0.32,3.947c1.707,5.014,0.107,10.773-4.053,14.187	c-1.281,1.067-3.84,2.24-5.44,2.667c-1.601,0.32-4.16,0.32-5.761-0.107H41.254z M38.373,49.146c3.521-0.746,6.613-2.88,7.787-5.439	c1.493-3.094,1.066-6.721-0.96-8.961c-1.707-1.92-4.267-2.986-10.347-4.479c-4.054-0.96-5.014-1.387-5.867-2.347	c-0.747-0.854-0.854-1.493-0.213-2.453c0.64-1.067,2.24-1.707,4.373-1.813c3.094-0.213,4.48,0.533,6.293,3.413	c1.387,2.134,2.773,2.667,4.588,1.813c2.346-1.173,2.133-5.013-0.428-7.253c-2.453-2.026-5.119-2.88-9.6-2.88	c-4.693,0-7.894,0.96-10.027,3.093c-1.707,1.707-2.026,2.667-2.026,5.333c0,2.773,0.32,3.626,2.133,5.227	c1.92,1.813,3.52,2.454,9.279,3.84c4.054,0.96,5.121,1.493,6.08,2.56c0.428,0.534,0.641,0.96,0.641,1.92	c0,1.067-0.107,1.28-0.96,2.134c-1.28,1.279-3.2,1.812-5.653,1.707c-2.88-0.214-4.16-1.067-5.653-4.054	c-1.067-2.026-1.92-2.773-3.307-2.773c-3.094,0-4.16,2.56-2.56,5.866c1.387,2.881,4.16,4.801,7.68,5.547	c2.133,0.427,6.827,0.427,8.854,0H38.373z"/></svg>