<svg xmlns="http://www.w3.org/2000/svg" viewBox="0 0 58 58"><path fill="#efebde" d="M46.5 14l-14-14h-31v58h45z"/><path d="M11.5 23h25a1 1 0 1 0 0-2h-25a1 1 0 1 0 0 2zm0-8h10a1 1 0 1 0 0-2h-10a1 1 0 1 0 0 2zm25 14h-25a1 1 0 1 0 0 2h25a1 1 0 1 0 0-2zm0 8h-25a1 1 0 1 0 0 2h25a1 1 0 1 0 0-2zm0 8h-25a1 1 0 1 0 0 2h25a1 1 0 1 0 0-2zm-4-45v14h14z" fill="#d5d0bb"/><circle cx="44.5" cy="46" r="12" fill="#ed7161"/><path d="M45.914 46l3.536-3.536a.999.999 0 1 0-1.414-1.414L44.5 44.586l-3.536-3.536a.999.999 0 1 0-1.414 1.414L43.086 46l-3.536 3.536a.999.999 0 1 0 1.414 1.414l3.536-3.536 3.536 3.536a.997.997 0 0 0 1.414 0 .999.999 0 0 0 0-1.414L45.914 46z" fill="#fff"/></svg>