<svg xmlns="http://www.w3.org/2000/svg" viewBox="0 0 58.707 58.707"><path fill="#efebde" d="M46.072 14l-14-14h-31v58h45z"/><path d="M11.072 23h25a1 1 0 1 0 0-2h-25a1 1 0 1 0 0 2zm0-8h10a1 1 0 1 0 0-2h-10a1 1 0 1 0 0 2zm25 14h-25a1 1 0 1 0 0 2h25a1 1 0 1 0 0-2zm0 8h-25a1 1 0 1 0 0 2h25a1 1 0 1 0 0-2zm0 8h-25a1 1 0 1 0 0 2h25a1 1 0 1 0 0-2zm-4-45v14h14z" fill="#d5d0bb"/><path fill="#eddcc7" d="M36.201 49.214l-.007.008-1.989 7.289 4.647-4.646z"/><path d="M55.451 35.266l-1.247-1.247a1.985 1.985 0 0 0-2.807 0L47.815 37.6l2.651 2.651 4.985-4.985z" fill="#d75a4a"/><path fill="#f29c21" d="M47.814 37.6l2.651 2.651-11.613 11.613-2.651-2.65z"/><path fill="#d6c4b1" d="M41.85 54.879l.008-.008-3.006-3.006-4.647 4.646-.133.489z"/><path d="M53.472 43.257l3.582-3.582a1.985 1.985 0 0 0 0-2.807l-1.602-1.602-4.985 4.985 3.005 3.006z" fill="#a34740"/><path fill="#e18c25" d="M41.858 54.872l-3.006-3.006 11.613-11.614 3.006 3.006z"/><path d="M33.365 58.707A.999.999 0 0 1 32.658 57l2.207-2.207a.999.999 0 1 1 1.414 1.414l-2.207 2.207a.997.997 0 0 1-.707.293z" fill="#5e5e5e"/></svg>